<svg id="_x33_0" enable-background="new 0 0 64 64" height="512" viewBox="0 0 64 64" width="512" xmlns="http://www.w3.org/2000/svg"><g><path d="m32 25c-3.859 0-7 3.14-7 7s3.141 7 7 7 7-3.14 7-7-3.141-7-7-7zm0 12c-2.757 0-5-2.243-5-5s2.243-5 5-5 5 2.243 5 5-2.243 5-5 5z"/><path d="m60.499 41.67c-.472-.273-.98-.441-1.499-.548v-18.231c.52-.107 1.026-.287 1.499-.56 2.388-1.379 3.209-4.443 1.831-6.831-1.379-2.386-4.443-3.206-6.831-1.83-.36.208-.674.467-.966.748l-17.598-9.061c-.32-2.451-2.398-4.357-4.935-4.357-2.536 0-4.615 1.906-4.935 4.356l-17.598 9.061c-.289-.28-.602-.539-.966-.748-2.389-1.378-5.452-.558-6.831 1.831-1.378 2.387-.557 5.451 1.831 6.83.473.273.98.454 1.5.56l-.002 18.234c-.514.104-1.022.269-1.5.545-2.388 1.378-3.208 4.442-1.83 6.831.668 1.157 1.746 1.984 3.036 2.33.431.115.868.172 1.302.172.866 0 1.722-.227 2.492-.672.363-.21.677-.469.966-.749l17.6 9.063c.32 2.45 2.399 4.356 4.935 4.356 2.537 0 4.615-1.906 4.935-4.357l17.598-9.06c.289.28.602.539.966.748.785.453 1.644.669 2.491.669 1.729 0 3.414-.896 4.34-2.499 1.378-2.388.557-5.452-1.831-6.831zm-6.234 1.007-9.265-5.258v-10.838l9.265-5.258c.643.726 1.482 1.25 2.44 1.507.098.026.197.039.295.059v18.233c-.098.02-.197.023-.295.049-.958.257-1.797.781-2.44 1.506zm2.234-27.274c.472-.272.986-.401 1.495-.401 1.037 0 2.049.538 2.604 1.499.827 1.433.334 3.271-1.099 4.098-.694.401-1.503.507-2.276.3-.774-.208-1.421-.704-1.821-1.398-.828-1.433-.336-3.272 1.097-4.098zm-19.757-7.895 16.66 8.579c-.084.203-.175.404-.233.62-.259.966-.224 1.963.089 2.889l-9.253 5.251-11.005-6.421v-7.527c1.78-.363 3.197-1.684 3.742-3.391zm-4.742 36.334-11-6.417v-10.851l11-6.417 11 6.417v10.852zm0-40.842c1.654 0 3 1.346 3 3s-1.346 3-3 3-3-1.346-3-3 1.346-3 3-3zm-4.742 4.507c.545 1.708 1.962 3.029 3.742 3.392v7.527l-11.006 6.421-9.255-5.253c.393-1.167.313-2.41-.142-3.507zm-17.523 35.168c-.729-.819-1.699-1.339-2.735-1.552l.002-18.236c.098-.02.197-.032.294-.059.958-.257 1.797-.781 2.44-1.506l9.264 5.26v10.836zm-6.333-26.175c.556-.962 1.567-1.5 2.604-1.5.509 0 1.024.129 1.495.401 1.433.827 1.925 2.666 1.098 4.098-.4.694-1.047 1.19-1.821 1.397-.774.208-1.583.101-2.276-.3-1.434-.826-1.927-2.664-1.1-4.096zm4.097 32.097c-.694.401-1.502.507-2.276.3s-1.421-.704-1.822-1.397c-.827-1.433-.335-3.271 1.098-4.098.471-.273.986-.402 1.495-.402 1.037 0 2.048.538 2.604 1.5.827 1.432.334 3.27-1.099 4.097zm19.759 7.896-16.662-8.58c.456-1.098.535-2.341.142-3.508l9.256-5.252 11.006 6.421v7.527c-1.78.363-3.197 1.684-3.742 3.392zm4.742 4.507c-1.654 0-3-1.346-3-3s1.346-3 3-3 3 1.346 3 3-1.346 3-3 3zm4.742-4.508c-.545-1.707-1.962-3.028-3.742-3.391v-7.527l11.006-6.421 9.255 5.253c-.393 1.167-.313 2.41.142 3.508zm23.856-8.992c-.828 1.433-2.668 1.925-4.099 1.098-1.433-.827-1.925-2.666-1.098-4.098.4-.694 1.047-1.19 1.821-1.397.259-.069.521-.103.782-.103.52 0 1.033.136 1.495.403 1.433.827 1.926 2.665 1.099 4.097z"/></g></svg>