<svg id="Capa_1" enable-background="new 0 0 512 512" height="512" viewBox="0 0 512 512" width="512" xmlns="http://www.w3.org/2000/svg" xmlns:xlink="http://www.w3.org/1999/xlink"><linearGradient id="SVGID_1_" gradientUnits="userSpaceOnUse" x1="256" x2="256" y1="436" y2="76"><stop offset="0" stop-color="#5558ff"/><stop offset="1" stop-color="#00c0ff"/></linearGradient><g><g><path d="m467 76h-422c-24.814 0-45 20.186-45 45v270c0 24.814 20.186 45 45 45h422c24.814 0 45-20.186 45-45v-270c0-24.814-20.186-45-45-45zm15 315c0 8.276-6.724 15-15 15h-422c-8.276 0-15-6.724-15-15v-165h452zm0-195h-452v-30h452zm0-60h-452v-15c0-8.276 6.724-15 15-15h422c8.276 0 15 6.724 15 15zm-362 240c10.576 0 20.903-2.856 30-8.188 9.097 5.332 19.424 8.188 30 8.188 33.091 0 60-26.909 60-60s-26.909-60-60-60c-10.576 0-20.903 2.856-30 8.188-9.097-5.332-19.424-8.188-30-8.188-33.091 0-60 26.909-60 60s26.909 60 60 60zm0-90c7.28 0 14.355 2.783 19.966 7.822 5.684 5.127 14.385 5.127 20.068 0 5.611-5.039 12.686-7.822 19.966-7.822 16.538 0 30 13.462 30 30s-13.462 30-30 30c-7.28 0-14.355-2.783-19.966-7.822-5.691-5.133-14.373-5.138-20.068 0-5.611 5.039-12.686 7.822-19.966 7.822-16.538 0-30-13.462-30-30s13.462-30 30-30zm197 60h30c8.291 0 15-6.709 15-15s-6.709-15-15-15h-30c-8.291 0-15 6.709-15 15s6.709 15 15 15zm90 0h30c8.291 0 15-6.709 15-15s-6.709-15-15-15h-30c-8.291 0-15 6.709-15 15s6.709 15 15 15z" fill="url(#SVGID_1_)"/></g></g></svg>