<svg id="Capa_1" enable-background="new 0 0 512 512" height="512" viewBox="0 0 512 512" width="512" xmlns="http://www.w3.org/2000/svg" xmlns:xlink="http://www.w3.org/1999/xlink"><linearGradient id="SVGID_1_" gradientUnits="userSpaceOnUse" x1="256" x2="256" y1="512" y2="0"><stop offset="0" stop-color="#fd3a84"/><stop offset="1" stop-color="#ffa68d"/></linearGradient><g><g><path d="m466 120h-126.194c30.948-24.76 51.194-62.373 51.194-105 0-8.291-6.709-15-15-15-52.178 0-97.529 29.751-120 73.184-22.471-43.433-67.822-73.184-120-73.184-8.291 0-15 6.709-15 15 0 42.627 20.246 80.24 51.194 105h-126.194c-8.291 0-15 6.709-15 15v120c0 8.291 6.709 15 15 15h15v227c0 8.291 6.709 15 15 15h210 .577 149.423c8.291 0 15-6.709 15-15v-227h15c8.291 0 15-6.709 15-15v-120c0-8.291-6.709-15-15-15zm-255 362h-120v-212h120zm0-242h-150v-90h150zm-58.74-208.74c44.912 7.002 80.479 42.568 87.48 87.48-44.912-7.002-80.478-42.568-87.48-87.48zm118.74 450.74h-30v-332h30zm1.26-363.26c7.002-44.912 42.568-80.479 87.48-87.48-7.002 44.912-42.568 80.478-87.48 87.48zm148.74 363.26h-120v-212h120zm30-242h-150v-90h150z" fill="url(#SVGID_1_)"/></g></g></svg>