<svg id="Capa_1" enable-background="new 0 0 510 510" height="512" viewBox="0 0 510 510" width="512" xmlns="http://www.w3.org/2000/svg" xmlns:xlink="http://www.w3.org/1999/xlink"><linearGradient id="SVGID_1_" gradientUnits="userSpaceOnUse" x1="255" x2="255" y1="510" y2="0"><stop offset="0" stop-color="#fd3a84"/><stop offset="1" stop-color="#ffa68d"/></linearGradient><g><g><path d="m180 240c33.091 0 60-26.909 60-60s-26.909-60-60-60-60 26.909-60 60 26.909 60 60 60zm0-90c16.538 0 30 13.462 30 30s-13.462 30-30 30-30-13.462-30-30 13.462-30 30-30zm75-150c-140.61 0-255 114.39-255 255s114.39 255 255 255 255-114.39 255-255-114.39-255-255-255zm0 480c-124.072 0-225-100.928-225-225s100.928-225 225-225 225 100.928 225 225-100.928 225-225 225zm109.395-355.605-240 240c-5.859 5.859-5.859 15.352 0 21.211 2.93 2.93 6.768 4.395 10.605 4.395s7.676-1.465 10.605-4.395l240-240c5.859-5.859 5.859-15.352 0-21.211s-15.351-5.86-21.21 0zm-34.395 145.605c-33.091 0-60 26.909-60 60s26.909 60 60 60 60-26.909 60-60-26.909-60-60-60zm0 90c-16.538 0-30-13.462-30-30s13.462-30 30-30 30 13.462 30 30-13.462 30-30 30z" fill="url(#SVGID_1_)"/></g></g></svg>