<svg id="Capa_1" enable-background="new 0 0 512 512" height="512" viewBox="0 0 512 512" width="512" xmlns="http://www.w3.org/2000/svg" xmlns:xlink="http://www.w3.org/1999/xlink"><linearGradient id="SVGID_1_" gradientUnits="userSpaceOnUse" x1="256" x2="256" y1="512" y2="0"><stop offset="0" stop-color="#fd5900"/><stop offset="1" stop-color="#ffde00"/></linearGradient><g><g><path d="m15 90h15v60c0 8.291 6.709 15 15 15s15-6.709 15-15v-60h15c8.291 0 15-6.709 15-15v-15h60c8.291 0 15-6.709 15-15s-6.709-15-15-15h-60v-15c0-8.291-6.709-15-15-15h-60c-8.291 0-15 6.709-15 15v60c0 8.291 6.709 15 15 15zm15-60h30v30h-30zm467-30h-60c-8.291 0-15 6.709-15 15v15h-60c-8.291 0-15 6.709-15 15s6.709 15 15 15h60v15c0 8.291 6.709 15 15 15h15v60c0 8.291 6.709 15 15 15s15-6.709 15-15v-60h15c8.291 0 15-6.709 15-15v-60c0-8.291-6.709-15-15-15zm-15 60h-30v-30h30zm15 362h-15v-60c0-8.291-6.709-15-15-15s-15 6.709-15 15v60h-15c-8.291 0-15 6.709-15 15v15h-60c-8.291 0-15 6.709-15 15s6.709 15 15 15h60v15c0 8.291 6.709 15 15 15h60c8.291 0 15-6.709 15-15v-60c0-8.291-6.709-15-15-15zm-15 60h-30v-30h30zm-271-422h90c8.291 0 15-6.709 15-15s-6.709-15-15-15h-90c-8.291 0-15 6.709-15 15s6.709 15 15 15zm90 392h-90c-8.291 0-15 6.709-15 15s6.709 15 15 15h90c8.291 0 15-6.709 15-15s-6.709-15-15-15zm-151 0h-60v-15c0-8.291-6.709-15-15-15h-15v-60c0-8.291-6.709-15-15-15s-15 6.709-15 15v60h-15c-8.291 0-15 6.709-15 15v60c0 8.291 6.709 15 15 15h60c8.291 0 15-6.709 15-15v-15h60c8.291 0 15-6.709 15-15s-6.709-15-15-15zm-90 30h-30v-30h30zm-15-286c-8.291 0-15 6.709-15 15v90c0 8.291 6.709 15 15 15s15-6.709 15-15v-90c0-8.291-6.709-15-15-15zm422 120c8.291 0 15-6.709 15-15v-90c0-8.291-6.709-15-15-15s-15 6.709-15 15v90c0 8.291 6.709 15 15 15zm-166 105c66.182 0 120-53.833 120-120s-53.818-120-120-120v-75c0-8.291-6.709-15-15-15h-180c-8.291 0-15 6.709-15 15v180c0 8.291 6.709 15 15 15h75c0 66.167 53.818 120 120 120zm-180-150v-150h150v64.259c-41.97 10.91-74.832 43.777-85.739 85.741zm150-54.472v54.472h-54.472c9.062-25.415 29.057-45.41 54.472-54.472zm15 84.472c8.291 0 15-6.709 15-15v-75c49.629 0 90 40.371 90 90s-40.371 90-90 90-90-40.371-90-90z" fill="url(#SVGID_1_)"/></g></g></svg>