<svg id="Capa_1" enable-background="new 0 0 512 512" height="512" viewBox="0 0 512 512" width="512" xmlns="http://www.w3.org/2000/svg" xmlns:xlink="http://www.w3.org/1999/xlink"><linearGradient id="SVGID_1_" gradientUnits="userSpaceOnUse" x1="256" x2="256" y1="512" y2="0"><stop offset="0" stop-color="#5558ff"/><stop offset="1" stop-color="#00c0ff"/></linearGradient><g><g><path d="m451 213.518v-18.518c0-107.52-87.48-195-195-195s-195 87.48-195 195v18.518c-34.191 6.969-60 37.266-60 73.482v30c0 41.353 33.647 75 75 75h60c8.291 0 15-6.709 15-15v-150c0-8.291-6.709-15-15-15h-45v-17c0-90.981 74.019-165 165-165s165 74.019 165 165v17h-45c-8.291 0-15 6.709-15 15v150c0 8.291 6.709 15 15 15h43.482c-6.969 34.191-37.266 60-73.482 60h-47.763c-6.213-17.422-22.707-30-42.237-30-24.814 0-45 20.186-45 45s20.186 45 45 45c19.53 0 36.024-12.578 42.237-30h47.763c53.227 0 96.861-39.966 103.623-91.379 34.852-6.441 61.377-36.934 61.377-73.621v-30c0-36.216-25.809-66.513-60-73.482zm-390 145.719c-17.422-6.213-30-22.707-30-42.237v-30c0-19.53 12.578-36.024 30-42.237zm60-117.237v120h-30v-120zm135 240c-8.276 0-15-6.724-15-15s6.724-15 15-15 15 6.724 15 15-6.724 15-15 15zm165-120h-30v-120h30zm60-45c0 19.53-12.578 36.024-30 42.237v-114.474c17.422 6.212 30 22.707 30 42.237z" fill="url(#SVGID_1_)"/></g></g></svg>